<svg width="24" height="24" viewBox="0 0 24 24" fill="none" xmlns="http://www.w3.org/2000/svg">
<g clip-path="url(#clip0_1_2)">
<path fill-rule="evenodd" clip-rule="evenodd" d="M12 0.4C9.24393 0.397908 6.57715 1.37719 4.47741 3.16241C2.37766 4.94763 0.982145 7.42214 0.540856 10.1427C0.099566 12.8632 0.641337 15.6519 2.06911 18.0093C3.49689 20.3668 5.71738 22.1388 8.3328 23.008C8.9136 23.1136 9.1248 22.7552 9.1248 22.448C9.1248 22.1728 9.1152 21.4432 9.1088 20.4752C5.8832 21.176 5.2016 18.92 5.2016 18.92C4.6736 17.5792 3.9136 17.224 3.9136 17.224C2.8608 16.504 3.9936 16.5184 3.9936 16.5184C5.1584 16.6 5.7696 17.7136 5.7696 17.7136C6.8048 19.4864 8.4848 18.9744 9.1456 18.6768C9.2512 17.928 9.552 17.416 9.8816 17.1264C7.3056 16.8336 4.5984 15.8384 4.5984 11.3936C4.58165 10.2411 5.00972 9.12657 5.7936 8.2816C5.6736 7.9872 5.2752 6.8096 5.9056 5.2096C5.9056 5.2096 6.8816 4.8992 9.096 6.4C10.0426 6.14258 11.019 6.01131 12 6.0096C12.981 6.01145 13.9574 6.14271 14.904 6.4C17.1184 4.8992 18.0912 5.2112 18.0912 5.2112C18.7248 6.808 18.3264 7.9872 18.2064 8.2816C18.9504 9.0928 19.3984 10.1264 19.3984 11.3936C19.3984 15.8496 16.6864 16.8304 14.1024 17.1168C14.5184 17.4752 14.8896 18.184 14.8896 19.2656C14.8896 20.8176 14.8752 22.0672 14.8752 22.448C14.8752 22.7584 15.0848 23.12 15.6736 23.0064C18.2885 22.1361 20.5081 20.3633 21.9349 18.0054C23.3616 15.6476 23.9023 12.8588 23.4601 10.1386C23.0178 7.41838 21.6216 4.94449 19.5214 3.16003C17.4212 1.37558 14.7559 0.397149 12 0.4Z" fill="#CA9229"/>
</g>
<defs>
<clipPath id="clip0_1_2">
<rect width="24" height="24" fill="white"/>
</clipPath>
</defs>
</svg>
