<svg width="21" height="24" viewBox="0 0 21 24" fill="none" xmlns="http://www.w3.org/2000/svg">
<g clip-path="url(#clip0_3_19)">
<path d="M10.2797 0.0234379C10.425 -0.00468712 10.575 -0.00468712 10.7203 0.0234379L20.0953 1.89844C20.6203 2.00156 21 2.46563 21 3C21 3.53438 20.6203 3.99844 20.0953 4.10156L16.5 4.82344V7.5C16.5 10.8141 13.8141 13.5 10.5 13.5C7.18593 13.5 4.5 10.8141 4.5 7.5V4.82344L2.25 4.37344V7.425L2.98593 11.1C3.02812 11.3203 2.97187 11.55 2.83125 11.7234C2.69062 11.8969 2.475 12 2.25 12H0.749996C0.524996 12 0.314059 11.9016 0.168746 11.7234C0.0234337 11.5453 -0.0328163 11.3203 0.0140587 11.1L0.749996 7.425V4.05938C0.304684 3.90469 -3.79642e-06 3.48281 -3.79642e-06 3C-3.79642e-06 2.46563 0.379684 2.00156 0.904684 1.89844L10.2797 0.0234379ZM5.24531 15.3609C5.7375 15.2016 6.26718 15.3797 6.62343 15.7594L9.95156 19.2984C10.2469 19.6125 10.7484 19.6125 11.0437 19.2984L14.3719 15.7594C14.7281 15.3797 15.2578 15.2016 15.75 15.3609C18.7969 16.3406 21 19.1906 21 22.5609C21 23.3578 20.3531 24 19.5609 24H1.43906C0.646871 24 -3.79642e-06 23.3531 -3.79642e-06 22.5609C-3.79642e-06 19.1906 2.20312 16.3406 5.24531 15.3609Z" fill="#CA9229"/>
</g>
<defs>
<clipPath id="clip0_3_19">
<rect width="21" height="24" fill="white"/>
</clipPath>
</defs>
</svg>
